HIERARCHY
ROOT mixamorig:Hips
{
	OFFSET -0.000008 104.274872 1.554316
	CHANNELS 6 Xposition Yposition Zposition Xrotation Yrotation Zrotation
	JOINT mixamorig:Spine
	{
		OFFSET -0.000005 10.181595 0.131521
		CHANNELS 6 Xposition Yposition Zposition Xrotation Yrotation Zrotation
		JOINT mixamorig:Spine1
		{
			OFFSET -0.000000 9.893959 -1.470711
			CHANNELS 6 Xposition Yposition Zposition Xrotation Yrotation Zrotation
			JOINT mixamorig:Spine2
			{
				OFFSET -0.000000 9.220757 -1.370642
				CHANNELS 3 Xrotation Yrotation Zrotation
				JOINT mixamorig:Neck
				{
					OFFSET 0.000001 16.740417 -2.049038
					CHANNELS 6 Xposition Yposition Zposition Xrotation Yrotation Zrotation
					JOINT mixamorig:Head
					{
						OFFSET 0.000000 9.617874 1.685009
						CHANNELS 6 Xposition Yposition Zposition Xrotation Yrotation Zrotation
						JOINT mixamorig:HeadTop_End
						{
							OFFSET 0.000002 22.037384 7.501098
							CHANNELS 6 Xposition Yposition Zposition Xrotation Yrotation Zrotation
							End Site
							{
								OFFSET 0.000002 23.106583 -2.828261
							}
						}
					}
				}
				JOINT mixamorig:RightShoulder
				{
					OFFSET -4.569969 11.014923 -2.160886
					CHANNELS 6 Xposition Yposition Zposition Xrotation Yrotation Zrotation
					JOINT mixamorig:RightArm
					{
						OFFSET -10.592850 -0.524811 -2.232100
						CHANNELS 3 Xrotation Yrotation Zrotation
						JOINT mixamorig:RightForeArm
						{
							OFFSET -27.841520 0.000015 -0.000005
							CHANNELS 6 Xposition Yposition Zposition Xrotation Yrotation Zrotation
							JOINT mixamorig:RightHand
							{
								OFFSET -28.328838 -0.000015 0.000018
								CHANNELS 6 Xposition Yposition Zposition Xrotation Yrotation Zrotation
								JOINT mixamorig:RightHandThumb1
								{
									OFFSET -2.464806 -1.573990 2.681853
									CHANNELS 6 Xposition Yposition Zposition Xrotation Yrotation Zrotation
									JOINT mixamorig:RightHandThumb2
									{
										OFFSET -3.215195 -1.872772 1.924282
										CHANNELS 6 Xposition Yposition Zposition Xrotation Yrotation Zrotation
										JOINT mixamorig:RightHandThumb3
										{
											OFFSET -2.654823 -1.527985 1.512609
											CHANNELS 6 Xposition Yposition Zposition Xrotation Yrotation Zrotation
											JOINT mixamorig:RightHandThumb4
											{
												OFFSET -2.018822 -1.152008 1.108055
												CHANNELS 3 Xrotation Yrotation Zrotation
												End Site
												{
													OFFSET -1.888100 -1.145340 1.324313
												}
											}
										}
									}
								}
								JOINT mixamorig:RightHandIndex1
								{
									OFFSET -9.108284 -0.517868 2.259835
									CHANNELS 6 Xposition Yposition Zposition Xrotation Yrotation Zrotation
									JOINT mixamorig:RightHandIndex2
									{
										OFFSET -3.699997 0.000000 0.001215
										CHANNELS 3 Xrotation Yrotation Zrotation
										JOINT mixamorig:RightHandIndex3
										{
											OFFSET -2.850014 0.000031 -0.000522
											CHANNELS 3 Xrotation Yrotation Zrotation
											JOINT mixamorig:RightHandIndex4
											{
												OFFSET -2.772179 -0.000015 -0.000019
												CHANNELS 3 Xrotation Yrotation Zrotation
												End Site
												{
													OFFSET -2.772186 0.000000 -0.000502
												}
											}
										}
									}
								}
								JOINT mixamorig:RightHandMiddle1
								{
									OFFSET -9.532509 -0.000046 -0.000025
									CHANNELS 6 Xposition Yposition Zposition Xrotation Yrotation Zrotation
									JOINT mixamorig:RightHandMiddle2
									{
										OFFSET -3.700012 0.000000 0.003713
										CHANNELS 3 Xrotation Yrotation Zrotation
										JOINT mixamorig:RightHandMiddle3
										{
											OFFSET -2.949989 0.000015 -0.002054
											CHANNELS 3 Xrotation Yrotation Zrotation
											JOINT mixamorig:RightHandMiddle4
											{
												OFFSET -2.946625 0.000000 -0.000154
												CHANNELS 3 Xrotation Yrotation Zrotation
												End Site
												{
													OFFSET -2.946632 0.000015 -0.001136
												}
											}
										}
									}
								}
								JOINT mixamorig:RightHandRing1
								{
									OFFSET -9.103600 -0.043076 -1.865135
									CHANNELS 6 Xposition Yposition Zposition Xrotation Yrotation Zrotation
									JOINT mixamorig:RightHandRing2
									{
										OFFSET -3.379272 0.000000 -0.001054
										CHANNELS 3 Xrotation Yrotation Zrotation
										JOINT mixamorig:RightHandRing3
										{
											OFFSET -2.889694 0.000015 0.000379
											CHANNELS 3 Xrotation Yrotation Zrotation
											JOINT mixamorig:RightHandRing4
											{
												OFFSET -2.638809 0.000000 0.000941
												CHANNELS 3 Xrotation Yrotation Zrotation
												End Site
												{
													OFFSET -2.638802 0.000000 0.005160
												}
											}
										}
									}
								}
								JOINT mixamorig:RightHandPinky1
								{
									OFFSET -8.076675 -0.486710 -3.806280
									CHANNELS 6 Xposition Yposition Zposition Xrotation Yrotation Zrotation
									JOINT mixamorig:RightHandPinky2
									{
										OFFSET -3.600006 -0.000031 -0.003747
										CHANNELS 3 Xrotation Yrotation Zrotation
										JOINT mixamorig:RightHandPinky3
										{
											OFFSET -2.099976 -0.000015 -0.005740
											CHANNELS 3 Xrotation Yrotation Zrotation
											JOINT mixamorig:RightHandPinky4
											{
												OFFSET -2.115776 -0.000031 -0.003680
												CHANNELS 3 Xrotation Yrotation Zrotation
												End Site
												{
													OFFSET -2.115776 -0.000015 -0.003507
												}
											}
										}
									}
								}
							}
						}
					}
				}
				JOINT mixamorig:LeftShoulder
				{
					OFFSET 4.570447 11.014725 -2.160858
					CHANNELS 6 Xposition Yposition Zposition Xrotation Yrotation Zrotation
					JOINT mixamorig:LeftArm
					{
						OFFSET 10.592371 -0.524597 -2.232121
						CHANNELS 3 Xrotation Yrotation Zrotation
						JOINT mixamorig:LeftForeArm
						{
							OFFSET 27.841520 -0.000015 0.000023
							CHANNELS 3 Xrotation Yrotation Zrotation
							JOINT mixamorig:LeftHand
							{
								OFFSET 28.328835 -0.000046 0.000017
								CHANNELS 6 Xposition Yposition Zposition Xrotation Yrotation Zrotation
								JOINT mixamorig:LeftHandThumb1
								{
									OFFSET 2.466141 -1.576187 2.681734
									CHANNELS 6 Xposition Yposition Zposition Xrotation Yrotation Zrotation
									JOINT mixamorig:LeftHandThumb2
									{
										OFFSET 3.217804 -1.872055 1.916487
										CHANNELS 6 Xposition Yposition Zposition Xrotation Yrotation Zrotation
										JOINT mixamorig:LeftHandThumb3
										{
											OFFSET 2.656021 -1.528809 1.514508
											CHANNELS 6 Xposition Yposition Zposition Xrotation Yrotation Zrotation
											JOINT mixamorig:LeftHandThumb4
											{
												OFFSET 2.020889 -1.154068 1.115132
												CHANNELS 6 Xposition Yposition Zposition Xrotation Yrotation Zrotation
												End Site
												{
													OFFSET 1.908852 -1.150833 1.300490
												}
											}
										}
									}
								}
								JOINT mixamorig:LeftHandIndex1
								{
									OFFSET 9.109306 -0.518036 2.259871
									CHANNELS 6 Xposition Yposition Zposition Xrotation Yrotation Zrotation
									JOINT mixamorig:LeftHandIndex2
									{
										OFFSET 3.699997 -0.000015 -0.000323
										CHANNELS 3 Xrotation Yrotation Zrotation
										JOINT mixamorig:LeftHandIndex3
										{
											OFFSET 2.850006 -0.000015 0.000350
											CHANNELS 3 Xrotation Yrotation Zrotation
											JOINT mixamorig:LeftHandIndex4
											{
												OFFSET 2.774857 -0.000015 -0.000027
												CHANNELS 3 Xrotation Yrotation Zrotation
												End Site
												{
													OFFSET 2.774864 0.000000 -0.000099
												}
											}
										}
									}
								}
								JOINT mixamorig:LeftHandMiddle1
								{
									OFFSET 9.533401 0.000031 0.000044
									CHANNELS 6 Xposition Yposition Zposition Xrotation Yrotation Zrotation
									JOINT mixamorig:LeftHandMiddle2
									{
										OFFSET 3.699997 0.000000 -0.000231
										CHANNELS 3 Xrotation Yrotation Zrotation
										JOINT mixamorig:LeftHandMiddle3
										{
											OFFSET 2.949997 -0.000015 -0.000059
											CHANNELS 3 Xrotation Yrotation Zrotation
											JOINT mixamorig:LeftHandMiddle4
											{
												OFFSET 2.952866 0.000000 0.000062
												CHANNELS 3 Xrotation Yrotation Zrotation
												End Site
												{
													OFFSET 2.952858 0.000000 0.000228
												}
											}
										}
									}
								}
								JOINT mixamorig:LeftHandRing1
								{
									OFFSET 9.104530 -0.043030 -1.865075
									CHANNELS 6 Xposition Yposition Zposition Xrotation Yrotation Zrotation
									JOINT mixamorig:LeftHandRing2
									{
										OFFSET 3.150009 0.000000 0.000042
										CHANNELS 3 Xrotation Yrotation Zrotation
										JOINT mixamorig:LeftHandRing3
										{
											OFFSET 2.949989 -0.000015 0.000040
											CHANNELS 3 Xrotation Yrotation Zrotation
											JOINT mixamorig:LeftHandRing4
											{
												OFFSET 2.644318 -0.000015 0.000056
												CHANNELS 6 Xposition Yposition Zposition Xrotation Yrotation Zrotation
												End Site
												{
													OFFSET 2.644318 0.000000 0.000120
												}
											}
										}
									}
								}
								JOINT mixamorig:LeftHandPinky1
								{
									OFFSET 8.077782 -0.486877 -3.806258
									CHANNELS 6 Xposition Yposition Zposition Xrotation Yrotation Zrotation
									JOINT mixamorig:LeftHandPinky2
									{
										OFFSET 3.599960 0.000031 0.014726
										CHANNELS 3 Xrotation Yrotation Zrotation
										JOINT mixamorig:LeftHandPinky3
										{
											OFFSET 2.099998 0.000031 0.007705
											CHANNELS 3 Xrotation Yrotation Zrotation
											JOINT mixamorig:LeftHandPinky4
											{
												OFFSET 2.125504 0.000000 0.007515
												CHANNELS 3 Xrotation Yrotation Zrotation
												End Site
												{
													OFFSET 2.125511 0.000015 0.006257
												}
											}
										}
									}
								}
							}
						}
					}
				}
			}
		}
	}
	JOINT mixamorig:RightUpLeg
	{
		OFFSET -8.207787 -6.751663 -1.599560
		CHANNELS 6 Xposition Yposition Zposition Xrotation Yrotation Zrotation
		JOINT mixamorig:RightLeg
		{
			OFFSET -0.000001 -44.370129 0.345939
			CHANNELS 3 Xrotation Yrotation Zrotation
			JOINT mixamorig:RightFoot
			{
				OFFSET 0.000001 -44.423679 -3.043537
				CHANNELS 3 Xrotation Yrotation Zrotation
				JOINT mixamorig:RightToeBase
				{
					OFFSET -0.000003 -8.728673 10.710563
					CHANNELS 6 Xposition Yposition Zposition Xrotation Yrotation Zrotation
					JOINT mixamorig:RightToe_End
					{
						OFFSET -0.000002 -0.000676 9.278122
						CHANNELS 6 Xposition Yposition Zposition Xrotation Yrotation Zrotation
						End Site
						{
							OFFSET -0.000003 -0.000676 9.278122
						}
					}
				}
			}
		}
	}
	JOINT mixamorig:LeftUpLeg
	{
		OFFSET 8.207791 -6.751694 -1.599555
		CHANNELS 6 Xposition Yposition Zposition Xrotation Yrotation Zrotation
		JOINT mixamorig:LeftLeg
		{
			OFFSET -0.000002 -44.370033 0.346957
			CHANNELS 3 Xrotation Yrotation Zrotation
			JOINT mixamorig:LeftFoot
			{
				OFFSET 0.000000 -44.423672 -3.044393
				CHANNELS 3 Xrotation Yrotation Zrotation
				JOINT mixamorig:LeftToeBase
				{
					OFFSET -0.000003 -8.728668 10.710562
					CHANNELS 6 Xposition Yposition Zposition Xrotation Yrotation Zrotation
					JOINT mixamorig:LeftToe_End
					{
						OFFSET -0.000003 -0.000676 9.278135
						CHANNELS 6 Xposition Yposition Zposition Xrotation Yrotation Zrotation
						End Site
						{
							OFFSET -0.000003 -0.000677 9.278135
						}
					}
				}
			}
		}
	}
}
MOTION
Frames: 4
Frame Time: 0.033333
5.097713 101.766159 3.163036 0.319460 -2.713556 5.991881 -0.000006 10.181581 0.131522 3.885929 -0.145674 -0.880602 -0.000002 9.893957 -1.470711 1.362192 -0.309839 -1.536424 -3.131596 -0.300139 -2.049823 -0.000000 16.740400 -2.049037 -4.196151 0.557916 -3.354003 0.000001 9.617889 1.685005 -1.856508 0.653244 -1.282402 0.000002 22.037354 7.501097 0.000000 0.000000 0.000000 -4.569970 11.014966 -2.160886 -0.395929 9.937222 0.006118 4.589196 8.473314 74.412835 -27.841501 0.000010 0.000003 -0.000012 44.821201 0.000015 -28.328835 0.000007 0.000037 34.678790 25.575889 -23.161472 -2.464806 -1.574005 2.681843 16.257372 -8.207348 -13.943111 -3.215189 -1.872785 1.924284 3.922155 -3.531495 -14.756036 -2.654840 -1.527951 1.512611 -14.291612 8.365862 9.240553 -0.000001 -0.000003 0.000005 -9.108293 -0.517862 2.259832 -0.749457 1.559583 8.686059 0.617601 -3.336087 26.413783 -0.171257 -0.566351 17.102087 0.000003 0.000000 0.000002 -9.532511 -0.000042 -0.000029 -0.707367 -3.982821 20.955454 1.160447 -4.286540 38.085569 0.822124 -3.115630 31.114251 -0.000000 -0.000003 -0.000002 -9.103605 -0.043057 -1.865140 1.520297 -8.983938 39.181554 0.724228 -2.633538 23.959358 -0.121485 -0.237802 20.374442 -0.000002 -0.000000 0.000000 -8.076674 -0.486692 -3.806281 2.688218 -10.564567 44.485504 1.498128 -4.293792 49.139861 -0.445093 -2.694022 43.319720 -0.000001 -0.000000 0.000002 4.570447 11.014755 -2.160852 5.887608 -14.299746 -7.641248 8.199636 3.226532 -70.289436 -0.000073 -27.673386 0.000000 28.328835 -0.000036 0.000024 37.272366 -5.590133 -1.656246 2.466136 -1.576229 2.681729 26.283329 7.541189 32.718488 3.217804 -1.872040 1.916481 -2.829178 27.335554 -16.268764 2.656018 -1.528822 1.514498 8.071705 -13.836993 4.156607 2.020869 -1.154119 1.115129 -0.000004 -0.000002 -0.000007 9.109314 -0.518037 2.259874 9.079601 1.400265 -9.300594 0.268541 2.479653 -16.844478 -0.020263 0.173723 -3.878804 -0.000002 -0.000000 0.000000 9.533402 0.000023 0.000046 0.513724 7.309910 -16.168910 0.604522 3.429722 -26.926452 0.266789 1.832232 -15.811195 -0.000001 -0.000003 0.000003 9.104543 -0.043025 -1.865076 0.680979 7.663541 -33.522247 0.410076 1.971537 -16.856383 0.289179 1.181766 -12.267591 2.644305 0.000015 0.000061 -0.000001 0.000001 0.000002 8.077782 -0.486887 -3.806261 3.439313 13.379703 -30.988988 0.586334 2.623849 -29.034287 0.096994 1.514411 -6.655538 -0.000001 -0.000002 0.000001 -8.207788 -6.751667 -1.599560 -24.588420 -2.763093 -6.673736 58.766265 9.045021 -4.721811 4.123694 -13.909372 4.768968 -0.000003 -8.728670 10.710564 -2.498248 -0.147145 3.242906 -0.000003 -0.000676 9.278120 -0.000003 0.000000 0.000000 8.207795 -6.751680 -1.599557 -9.409614 6.539976 -9.201109 18.225612 -1.098802 -0.237699 -6.935954 -1.020735 4.585587 -0.000003 -8.728670 10.710563 -3.880357 0.000001 -0.000000 -0.000003 -0.000677 9.278139 0.000004 0.000000 -0.000000 
4.864789 101.939430 2.864284 0.821735 -1.138854 4.954657 -0.000006 10.181587 0.131523 3.288594 -0.642079 -0.313022 0.000001 9.893971 -1.470713 1.409545 -1.372687 -1.154483 -3.107620 -1.351338 -1.700506 0.000000 16.740398 -2.049037 -3.769862 0.668468 -3.147302 0.000000 9.617895 1.685005 -1.506777 1.530172 -1.395227 0.000003 22.037338 7.501098 0.000001 -0.000000 0.000000 -4.569970 11.014912 -2.160886 -0.499077 9.288056 0.935068 6.381088 5.127119 74.954851 -27.841509 0.000012 0.000001 -0.000004 41.764886 0.000030 -28.328833 0.000022 0.000033 38.630129 24.837723 -22.356239 -2.464798 -1.573972 2.681852 16.712049 -8.243402 -13.595442 -3.215195 -1.872802 1.924278 4.095470 -3.171678 -14.976735 -2.654854 -1.527967 1.512601 -14.230060 8.162014 9.256038 -0.000000 0.000001 0.000003 -9.108287 -0.517847 2.259839 -0.660336 1.287373 8.261437 0.626050 -3.353028 26.601418 -0.169406 -0.585825 17.289208 0.000000 0.000004 -0.000001 -9.532508 -0.000029 -0.000025 -0.534325 -4.321018 20.147740 1.158689 -4.284226 38.056431 0.820698 -3.113281 31.086691 0.000001 -0.000003 0.000000 -9.103584 -0.043048 -1.865135 1.536412 -9.008249 38.796253 0.720987 -2.627872 23.894245 -0.122400 -0.231170 20.309419 -0.000000 0.000004 0.000002 -8.076687 -0.486691 -3.806285 2.711097 -10.608339 44.230099 1.503607 -4.299740 49.220252 -0.442220 -2.702677 43.399732 0.000005 -0.000001 0.000001 4.570447 11.014752 -2.160857 6.134054 -16.430222 -5.926981 6.344454 -0.070273 -68.759289 -0.000064 -29.874319 -0.000042 28.328859 -0.000047 0.000022 34.670320 -6.464819 3.397581 2.466138 -1.576229 2.681727 26.440648 7.577372 32.000307 3.217797 -1.872038 1.916484 -3.315182 26.708587 -15.845023 2.656013 -1.528827 1.514506 8.708421 -14.174392 7.026593 2.020876 -1.154097 1.115129 -0.000001 -0.000001 -0.000004 9.109315 -0.518065 2.259871 8.860713 1.587830 -5.850659 0.269542 2.483010 -16.879037 -0.020164 0.177273 -3.913874 -0.000001 -0.000000 -0.000000 9.533415 0.000007 0.000040 0.433825 7.037611 -14.195691 0.601131 3.422701 -26.848386 0.264437 1.824771 -15.732846 0.000002 -0.000000 0.000003 9.104548 -0.043043 -1.865078 0.685304 7.627563 -31.906648 0.410034 1.971411 -16.855186 0.289157 1.181706 -12.266874 2.644337 0.000015 0.000062 0.000000 -0.000001 0.000001 8.077789 -0.486897 -3.806260 3.042503 12.973117 -29.448658 0.591054 2.633452 -29.140910 0.099310 1.524913 -6.762032 0.000002 0.000001 0.000002 -8.207788 -6.751673 -1.599569 -29.371074 -2.749961 -4.814583 50.347175 9.475616 -4.523473 2.964586 -16.139790 5.518404 -0.000005 -8.728671 10.710563 -4.486861 -0.025223 0.299265 -0.000004 -0.000675 9.278124 -0.000002 -0.000001 -0.000000 8.207792 -6.751693 -1.599558 -6.248534 7.497033 -7.770069 17.648355 -4.241469 -0.453241 -9.054091 -1.156936 4.873705 -0.000002 -8.728668 10.710560 -4.668400 0.000004 -0.000002 -0.000002 -0.000677 9.278135 0.000003 0.000000 -0.000000 
4.481283 101.935387 2.642970 1.115558 0.832727 3.361607 -0.000006 10.181579 0.131523 2.707285 -1.088268 0.477078 -0.000000 9.893977 -1.470713 1.636659 -2.399841 -0.754082 -2.915117 -2.373451 -1.350103 0.000001 16.740404 -2.049036 -3.736325 0.558760 -2.629120 -0.000000 9.617896 1.685008 -1.365901 1.849409 -1.263656 0.000001 22.037384 7.501096 0.000000 -0.000000 -0.000000 -4.569970 11.014905 -2.160884 -0.669640 7.757249 2.615143 8.488516 2.005069 74.611600 -27.841539 0.000007 0.000004 -0.000015 38.384837 0.000040 -28.328827 0.000019 0.000040 41.406202 23.148541 -20.359810 -2.464804 -1.573985 2.681846 16.878017 -8.844132 -13.613567 -3.215200 -1.872785 1.924272 4.410848 -2.393263 -15.197017 -2.654829 -1.527986 1.512604 -14.143650 7.876843 9.278552 -0.000002 -0.000000 0.000005 -9.108278 -0.517870 2.259829 -0.468027 1.166470 6.819572 0.633165 -3.367233 26.759124 -0.167799 -0.602193 17.446448 0.000002 0.000002 0.000000 -9.532508 -0.000042 -0.000030 -0.340742 -4.604473 18.358623 1.157497 -4.282585 38.036077 0.819736 -3.111698 31.068232 -0.000000 -0.000002 -0.000000 -9.103615 -0.043052 -1.865135 1.572724 -9.070671 37.653914 0.714976 -2.617221 23.771671 -0.124098 -0.218724 20.187060 0.000001 0.000002 0.000001 -8.076670 -0.486677 -3.806282 2.843163 -10.858307 43.017679 1.501869 -4.297843 49.194759 -0.443132 -2.699935 43.374365 -0.000000 -0.000000 0.000000 4.570448 11.014740 -2.160856 6.661218 -18.757989 -3.287076 4.467679 -1.863684 -67.446793 -0.000049 -32.937276 0.000015 28.328850 -0.000042 0.000022 31.249601 -8.856113 5.550313 2.466126 -1.576214 2.681731 26.604628 7.657854 31.230842 3.217807 -1.872063 1.916481 -3.799870 26.021484 -15.594941 2.656009 -1.528804 1.514501 8.854395 -14.841965 7.770255 2.020885 -1.154076 1.115129 -0.000003 -0.000000 -0.000008 9.109304 -0.518054 2.259876 8.433474 1.776667 -4.066843 0.269580 2.483098 -16.880118 -0.020152 0.177436 -3.915321 0.000001 -0.000000 0.000000 9.533406 0.000008 0.000044 0.414343 6.964556 -13.553308 0.601029 3.422506 -26.846070 0.264364 1.824533 -15.730363 0.000000 -0.000001 0.000000 9.104542 -0.043047 -1.865074 0.711356 7.660277 -31.287710 0.410054 1.971484 -16.855992 0.289186 1.181813 -12.268156 2.644311 0.000017 0.000059 0.000003 0.000002 -0.000001 8.077787 -0.486898 -3.806258 2.913142 12.820924 -28.996571 0.591910 2.635171 -29.160215 0.099718 1.526819 -6.781293 0.000001 0.000004 -0.000002 -8.207789 -6.751686 -1.599563 -33.632176 -4.279252 -3.007593 39.601587 9.219058 -4.617408 3.929024 -17.009445 6.353665 -0.000005 -8.728671 10.710562 -1.379824 -0.000000 0.000002 -0.000003 -0.000676 9.278124 -0.000001 0.000000 -0.000001 8.207790 -6.751702 -1.599557 -3.299496 8.516575 -5.302970 17.568903 -7.014559 -0.606878 -10.919203 -3.081570 4.845485 -0.000002 -8.728668 10.710562 -5.842802 0.000000 -0.000001 -0.000003 -0.000677 9.278137 0.000003 0.000000 -0.000000 
4.121151 101.545975 2.589166 1.093308 2.678987 2.136411 -0.000005 10.181611 0.131522 2.228627 -1.486358 0.723959 -0.000000 9.893984 -1.470711 2.147105 -3.147481 -0.249755 -2.418050 -3.147705 -0.901470 0.000000 16.740404 -2.049035 -4.162031 0.382080 -2.205431 -0.000000 9.617910 1.685002 -1.535695 1.704306 -0.995330 0.000003 22.037338 7.501101 0.000000 -0.000000 -0.000000 -4.569970 11.014915 -2.160884 -0.804538 5.607809 4.388887 11.338722 -0.935303 73.783446 -27.841511 0.000010 0.000003 -0.000023 35.818653 0.000019 -28.328831 0.000012 0.000032 42.455312 20.920649 -16.710200 -2.464784 -1.573979 2.681857 17.230836 -9.799076 -13.532582 -3.215209 -1.872809 1.924287 4.687458 -1.095112 -15.626366 -2.654831 -1.527959 1.512602 -14.039520 7.535043 9.306732 -0.000005 0.000001 0.000008 -9.108269 -0.517869 2.259837 -0.221463 1.322121 4.765522 0.650568 -3.401536 27.140698 -0.163760 -0.641742 17.826901 -0.000000 0.000000 -0.000000 -9.532495 -0.000011 -0.000021 -0.183516 -4.782930 16.103556 1.155168 -4.279476 37.996913 0.817855 -3.108553 31.031353 -0.000000 -0.000002 -0.000001 -9.103598 -0.043042 -1.865133 1.557391 -9.077497 35.827170 0.715653 -2.618400 23.785188 -0.123912 -0.220076 20.200404 -0.000004 -0.000001 -0.000002 -8.076659 -0.486690 -3.806280 2.834363 -10.952664 41.604202 1.518904 -4.316110 49.442773 -0.434237 -2.726593 43.621129 0.000001 0.000000 -0.000000 4.570447 11.014728 -2.160854 7.365354 -21.197647 -0.380543 2.885309 -2.185744 -66.112236 -0.000081 -37.251927 -0.000030 28.328838 -0.000035 0.000019 25.521407 -10.779930 6.141040 2.466133 -1.576220 2.681728 26.775136 7.775958 30.417988 3.217809 -1.872055 1.916484 -4.295950 25.279573 -15.428257 2.656017 -1.528827 1.514508 8.859963 -15.864438 7.938670 2.020877 -1.154089 1.115128 0.000000 0.000005 -0.000004 9.109321 -0.518038 2.259872 7.853118 1.990774 -3.339726 0.268243 2.478764 -16.835291 -0.020281 0.172880 -3.870412 -0.000002 -0.000001 0.000001 9.533429 0.000026 0.000045 0.387940 6.850041 -13.563132 0.601668 3.423808 -26.860928 0.264798 1.825903 -15.744723 0.000005 0.000001 -0.000002 9.104536 -0.043026 -1.865070 0.769488 7.766474 -31.249010 0.410097 1.971611 -16.857242 0.289236 1.181970 -12.269714 2.644317 0.000018 0.000058 0.000001 -0.000000 0.000000 8.077796 -0.486887 -3.806257 2.848691 12.692653 -29.049174 0.589352 2.630004 -29.102876 0.098484 1.521165 -6.724022 0.000002 0.000001 0.000002 -8.207787 -6.751651 -1.599568 -36.371949 -7.498785 -2.253114 27.366980 9.505975 -4.614407 2.977654 -13.720951 6.130718 -0.000004 -8.728672 10.710562 -2.722307 0.000002 0.000001 -0.000002 -0.000676 9.278126 -0.000000 0.000001 -0.000000 8.207791 -6.751683 -1.599556 -0.342411 9.503978 -2.916438 18.102465 -7.061229 -0.735927 -12.796311 -7.217940 4.235984 -0.000003 -8.728669 10.710562 -7.604752 0.000001 -0.000001 -0.000003 -0.000677 9.278137 0.000003 -0.000000 -0.000000 
